<svg xmlns="http://www.w3.org/2000/svg" xml:space="preserve" width="2000" height="1500" data-id="lg_IdhkUrN82Xcu9zMtcr" data-version="1" viewBox="0 0 2000 1500"><path fill="#333" stroke="transparent" d="M0 0h2000v1500H0z"/><g data-padding="20"><g transform="translate(-1651.786 -1250.75)scale(2.5829)"><rect width="583.538" height="128.82" x="486.009" y="653.084" fill="none" rx="0" ry="0" transform="matrix(.96 0 0 .96 280 62.19)"/><path fill="#fff" d="M788.367 785.305h-13.65v-54.6h13.65v-13.65h27.3v13.65h13.65v54.6h-13.65v-27.3h-27.3Zm0-54.06v13.11h27.3v-13.11Zm81.91 54.06h-13.65v-68.25h13.65v13.65h13.65v13.65h13.65v13.65h13.65v-40.95h13.66v68.25h-13.66v-13.65h-13.65v-13.65h-13.65v-13.65h-13.65Zm95.56 0h-13.65v-68.25h13.65Zm40.96 0h-13.66v-68.25h13.66v13.65h13.65v13.65h13.65v13.65h-13.65v-13.65h-13.65Zm54.6 0h-13.65v-40.95h-13.65v-13.65h13.65v-13.65h13.65Zm40.96 0h-13.65v-54.6h13.65v-13.65h27.3v13.65h13.65v54.6h-13.65v-27.3h-27.3Zm0-54.06v13.11h27.3v-13.11Zm95.56 54.06h-13.65v-54.6h-13.65v-13.65h40.95v13.65h-13.65Zm81.91 0h-40.95v-68.25h40.95v13.65h-27.3v13.65h27.3v13.65h-27.3v13.65h27.3Z"/><rect width="369.298" height="36.16" x="593.129" y="699.414" fill="none" rx="0" ry="0" transform="matrix(.96 0 0 .96 280 153.92)"/><path fill="#fff" d="M867.657 852.365h-2.33v-7.54l-5.89-11.56h2.45l4.7 9.26 4.23-9.26h2.26l-5.42 11.56Zm29.1.01h-11.62v-19.13h11.71v1.9h-9.68v6.28h8v1.96h-8v7.09h9.59Zm15.33-.01h-2.21v-19.1h6.13q2.15 0 3.47.73 1.32.74 1.94 1.95.63 1.21.63 2.71 0 1.11-.33 2.06-.34.95-1.06 1.68-.72.74-1.83 1.14-1.1.4-2.66.4h-4.08Zm0-17.08v6.75h3.83q1.41 0 2.27-.42.86-.41 1.26-1.16t.4-1.73q0-.96-.4-1.72-.4-.77-1.26-1.24-.86-.48-2.24-.48Zm26.81 22.24-1.04-.92q.86-.8 1.43-1.72.56-.92.56-1.5 0-.31-.22-.57-.23-.26-.56-.5-.32-.25-.55-.57t-.23-.72q0-.77.51-1.29.5-.52 1.3-.52t1.44.7q.64.71.64 1.84 0 .62-.19 1.28-.2.66-.62 1.38-.41.72-1.02 1.5-.62.78-1.45 1.61m51.94-5.15h-2.18v-17.2h-5.43v-1.93h13.25v1.93h-5.64Zm17.73-.01v-19.1h2.51v.21q-.18.19-.23.4-.05.22-.05.74v6.8h7.48v-8.15h2.52v.21q-.19.19-.23.4-.05.22-.05.74v17.75h-2.27v-9.11h-7.45v9.11Zm33.66-7.24.49 1.66h-6.93l.43-1.66Zm2.17 7.24-4.99-14.53-5.03 14.53h-2.12l7.06-19.44h.24l7.05 19.44Zm20.67.01h-2.18v-17.2h-5.43v-1.93h13.25v1.93h-5.64Zm22.61-20.39h2.45q0 1.84-.03 2.94-.03 1.11-.1 1.86-.08.75-.17 1.44t-.19 1.67h-1.47q-.09-.98-.18-1.67t-.17-1.43q-.08-.73-.11-1.85t-.03-2.96m25.88 20.68q-1.87 0-3.36-.61t-2.62-1.81l1.1-1.93.12-.28.22.13q.06.21.15.47t.43.63q.8.68 1.86 1.07 1.05.4 2.4.4.86 0 1.58-.26t1.26-.7q.53-.45.83-1.05.29-.59.29-1.27 0-.52-.11-.95t-.4-.78-.78-.7q-.49-.36-1.26-.76-.76-.39-1.84-.85-1.99-.77-3.14-1.68-1.15-.9-1.62-1.91-.48-1.01-.48-2.09 0-1.41.71-2.46.7-1.06 2-1.66 1.31-.6 3.12-.6 1.04 0 2 .29.97.3 1.81.82.85.52 1.49 1.28l-1.2 1.6-.18.24-.18-.12q-.03-.24-.13-.49-.09-.24-.43-.61-.73-.71-1.56-.97t-1.96-.26q-.77 0-1.37.22-.59.21-1.02.61t-.66.9q-.23.51-.23 1.06 0 .52.12.95t.43.83.84.8q.54.39 1.35.79t1.98.86q1.41.58 2.34 1.15.94.57 1.48 1.2.53.63.76 1.36.23.74.23 1.63 0 1.31-.66 2.59-.66 1.27-2.07 2.1-1.41.82-3.64.82m54.27-.3h-9.87v-1.81h3.77v-15.48h-3.56v-1.81h9.47v1.81h-3.77v15.51h3.96Zm20.93.01h-2.18v-17.2h-5.43v-1.93h13.25v1.93h-5.64Z"/></g><path fill="transparent" stroke="transparent" stroke-width="2.679" d="M250 520.982h1500v458.036H250z"/></g></svg>